<svg width="40" height="40" viewBox="0 0 40 40" fill="none" xmlns="http://www.w3.org/2000/svg">
<rect width="40" height="40" rx="6" fill="white"/>
<g clip-path="url(#clip0_4671_8582)">
<path fill-rule="evenodd" clip-rule="evenodd" d="M20 3C29.3898 3 37 10.6102 37 20C37 29.3898 29.3898 37 20 37C10.6102 37 3 29.3898 3 20C3 10.6135 10.6102 3 20 3Z" fill="#7524F9"/>
<path fill-rule="evenodd" clip-rule="evenodd" d="M30.5717 14.7637V15.9657C30.5717 16.2014 30.4455 16.4206 30.243 16.5368L26.3715 18.7713L29.8279 20.7602C30.2895 21.0258 30.5717 21.5172 30.5717 22.0485V25.2493C30.5717 25.7805 30.2861 26.2719 29.8246 26.5375L20.7336 31.7538C20.2754 32.0161 19.7109 32.0161 19.2494 31.7504L16.2744 30.0305C16.0553 29.9043 16.0553 29.5856 16.2744 29.4594L26.0959 23.8049C26.2055 23.7418 26.2055 23.5825 26.0959 23.5194L22.4469 21.411C22.2443 21.2915 21.992 21.2915 21.7861 21.411L11.8053 27.1618C11.6525 27.2481 11.4633 27.2514 11.3105 27.1618L10.1816 26.5143C9.72012 26.2487 9.43457 25.7573 9.43457 25.2227V23.9112C9.43457 23.7352 9.53086 23.5692 9.68359 23.4829L23.9908 15.2618C24.1004 15.1987 24.1004 15.0393 23.9908 14.9762L20.3385 12.8612C20.1359 12.7417 19.8836 12.7417 19.6777 12.8612L9.9293 18.4692C9.71016 18.5954 9.43457 18.436 9.43457 18.1836V14.7471C9.43457 14.2159 9.72012 13.7245 10.1816 13.4588L19.2727 8.24263C19.7309 7.98032 20.2953 7.98032 20.7535 8.24263L29.8246 13.4754C30.2861 13.7444 30.5717 14.2325 30.5717 14.7637Z" fill="white"/>
</g>
<defs>
<clipPath id="clip0_4671_8582">
<rect width="34" height="34" fill="white" transform="translate(3 3)"/>
</clipPath>
</defs>
</svg>
