<svg width="40" height="40" viewBox="0 0 40 40" fill="none" xmlns="http://www.w3.org/2000/svg">
<path d="M6 0C2.68629 0 0 2.68629 0 6V34C0 37.3137 2.68629 40 6 40H34C37.3137 40 40 37.3137 40 34V6C40 2.68629 37.3137 0 34 0H6ZM8.65301 9.2402C8.65301 8.95951 8.88208 8.73044 9.16277 8.73044H15.7122C15.9929 8.73044 16.222 8.95951 16.222 9.2402V15.7896C16.222 16.0736 15.9929 16.3026 15.7122 16.3026H9.16277C8.88208 16.3026 8.65301 16.0736 8.65301 15.7896V9.2402ZM16.222 30.7598C16.222 31.0405 15.9929 31.2696 15.7122 31.2696H9.16277C8.88208 31.2696 8.65301 31.0405 8.65301 30.7598V24.2104C8.65301 23.9264 8.88208 23.6974 9.16277 23.6974H15.7122C15.9929 23.6974 16.222 23.9264 16.222 24.2104V30.7598ZM23.2747 23.7845H16.7253C16.4446 23.7845 16.2123 23.5554 16.2123 23.2715V16.722C16.2123 16.4414 16.4414 16.2091 16.7253 16.2091H23.2747C23.5554 16.2091 23.7877 16.4381 23.7877 16.722V23.2715C23.7877 23.5522 23.5586 23.7845 23.2747 23.7845ZM31.3567 30.7598C31.3567 31.0405 31.1276 31.2696 30.8437 31.2696H24.2942C24.0135 31.2696 23.7845 31.0405 23.7845 30.7598V24.2104C23.7845 23.9264 24.0135 23.6974 24.2942 23.6974H30.8437C31.1244 23.6974 31.3567 23.9264 31.3567 24.2104V30.7598ZM31.3567 15.7864C31.3567 16.0703 31.1276 16.2994 30.8437 16.2994H24.2942C24.0135 16.2994 23.7845 16.0703 23.7845 15.7864V9.23697C23.7845 8.95628 24.0135 8.72721 24.2942 8.72721H30.8437C31.1244 8.72721 31.3567 8.95628 31.3567 9.23697V15.7864Z" fill="black"/>
</svg>
