<svg width="40" height="40" viewBox="0 0 40 40" fill="none" xmlns="http://www.w3.org/2000/svg">
<rect width="40" height="40" rx="6" fill="white"/>
<path d="M9.36809 13.3099C15.2374 7.56335 24.7535 7.56335 30.6229 13.3099L31.3293 14.0015C31.6227 14.2889 31.6227 14.7547 31.3293 15.0421L28.9129 17.4079C28.7661 17.5516 28.5282 17.5516 28.3815 17.4079L27.4094 16.4562C23.3148 12.4472 16.6762 12.4472 12.5815 16.4562L11.5405 17.4754C11.3938 17.6191 11.1559 17.6191 11.0092 17.4754L8.59277 15.1096C8.2993 14.8222 8.2993 14.3564 8.59277 14.069L9.36809 13.3099ZM35.6202 18.2028L37.7708 20.3084C38.0643 20.5957 38.0643 21.0616 37.7708 21.3489L28.0736 30.8435C27.7801 31.1308 27.3043 31.1308 27.0109 30.8435C27.0109 30.8435 27.0109 30.8435 27.0109 30.8435L20.1284 24.1049C20.055 24.0331 19.9361 24.0331 19.8627 24.1049C19.8627 24.1049 19.8627 24.1049 19.8627 24.1049L12.9803 30.8435C12.6869 31.1308 12.2111 31.1308 11.9176 30.8435C11.9176 30.8435 11.9176 30.8435 11.9176 30.8435L2.2201 21.3488C1.92663 21.0615 1.92663 20.5956 2.2201 20.3083L4.37071 18.2027C4.66418 17.9153 5.13998 17.9153 5.43345 18.2027L12.316 24.9413C12.3894 25.0131 12.5084 25.0131 12.5817 24.9413C12.5817 24.9413 12.5817 24.9413 12.5817 24.9413L19.464 18.2027C19.7574 17.9153 20.2333 17.9153 20.5267 18.2026C20.5267 18.2026 20.5267 18.2026 20.5267 18.2027L27.4093 24.9413C27.4827 25.0131 27.6016 25.0131 27.675 24.9413L34.5575 18.2028C34.851 17.9155 35.3268 17.9155 35.6202 18.2028Z" fill="#3B99FC"/>
</svg>
